<?xml version="1.0" encoding="UTF-8" standalone="no" ?>
<!DOCTYPE svg PUBLIC "-//W3C//DTD SVG 1.1//EN" "http://www.w3.org/Graphics/SVG/1.1/DTD/svg11.dtd">
<svg xmlns="http://www.w3.org/2000/svg" xmlns:xlink="http://www.w3.org/1999/xlink" version="1.1" width="240" height="50" viewBox="0 0 240 50" xml:space="preserve">
<desc>Created with Fabric.js 5.2.4</desc>
<defs>
</defs>
<rect x="0" y="0" width="100%" height="100%" fill="transparent"></rect>
<g transform="matrix(0 0 0 0 0 0)" id="d3e95d48-bd8d-4ced-a740-5c4379cdbffa"  >
</g>
<g transform="matrix(1 0 0 1 120 25)" id="042fc094-a6af-4121-97a6-ef5013a34e4b"  >
<rect style="stroke: none; stroke-width: 1; stroke-dasharray: none; stroke-linecap: butt; stroke-dashoffset: 0; stroke-linejoin: miter; stroke-miterlimit: 4; fill: rgb(255,255,255); fill-rule: nonzero; opacity: 1; visibility: hidden;" vector-effect="non-scaling-stroke"  x="-120" y="-25" rx="0" ry="0" width="240" height="50" />
</g>
<g transform="matrix(0.21 0 0 0.21 139.75 25)" style="filter: url(#SVGID_403);" id="7ee95bdc-718d-463b-a587-0458ebfc4e8d"  >
<filter id="SVGID_403" y="-24%" height="148%" x="-21%" width="142%" >
	<feGaussianBlur in="SourceAlpha" stdDeviation="1.5"></feGaussianBlur>
	<feOffset dx="2" dy="2" result="oBlur" ></feOffset>
	<feFlood flood-color="rgb(99,106,98)" flood-opacity="1"/>
	<feComposite in2="oBlur" operator="in" />
	<feMerge>
		<feMergeNode></feMergeNode>
		<feMergeNode in="SourceGraphic"></feMergeNode>
	</feMerge>
</filter>
		<text xml:space="preserve" font-family="Raleway" font-size="105" font-style="normal" font-weight="900" style="stroke: none; stroke-width: 1; stroke-dasharray: none; stroke-linecap: butt; stroke-dashoffset: 0; stroke-linejoin: miter; stroke-miterlimit: 4; fill: rgb(0,0,0); fill-rule: nonzero; opacity: 1; white-space: pre;" ><tspan x="-396.13" y="32.98" >zooeywm 的小窝</tspan></text>
</g>
<g transform="matrix(0.53 0 0 0.53 27.42 22)"  >
<path style="stroke: rgb(0,0,0); stroke-width: 0; stroke-dasharray: none; stroke-linecap: butt; stroke-dashoffset: 0; stroke-linejoin: miter; stroke-miterlimit: 4; fill: rgb(23,25,30); fill-rule: nonzero; opacity: 1;" vector-effect="non-scaling-stroke"  transform=" translate(-50, -50)" d="M 63.019 21.854 L 70.30199999999999 21.854 C 71.288 21.854 72.13499999999999 22.698999999999998 72.13499999999999 23.686999999999998 L 72.13499999999999 35.858 L 86.28099999999999 45.538 C 86.987 46.007 87.175 46.94799999999999 86.70299999999999 47.651999999999994 C 86.234 48.31099999999999 85.29299999999999 48.498999999999995 84.58899999999998 48.028999999999996 L 50.002 24.298 L 15.365 48.03 C 14.708 48.5 13.768 48.357 13.299 47.606 C 12.828 46.948 13.016 46.008 13.674 45.539 L 48.825 21.477 C 49.06 21.148 49.482 20.96 49.905 20.96 C 50.376 20.913 50.845 21.101 51.175000000000004 21.477 L 61.136 28.291 L 61.136 23.687 C 61.137 22.7 61.983 21.854 63.019 21.854 z M 24.202 45.445 L 49.907 27.634 L 75.613 45.445 L 75.613 75.05199999999999 C 75.613 77.261 73.828 79.04599999999999 71.619 79.04599999999999 L 56.814 79.04599999999999 L 56.814 53.763 L 43.798 53.763 L 43.798 79.04599999999999 L 28.196 79.04599999999999 C 25.986 79.04599999999999 24.202 77.261 24.202 75.05199999999999 L 24.202 45.445 z" stroke-linecap="round" />
</g>
</svg>
